<?xml version="1.0" encoding="utf-8"?>
<!-- Generator: Adobe Illustrator 25.3.1, SVG Export Plug-In . SVG Version: 6.00 Build 0)  -->
<svg version="1.1" id="Слой_1" xmlns="http://www.w3.org/2000/svg" xmlns:xlink="http://www.w3.org/1999/xlink" x="0px" y="0px"
	 viewBox="0 0 500 501" style="enable-background:new 0 0 500 501;" xml:space="preserve">
<style type="text/css">
	.st0{fill:#0000FF;stroke:#000000;stroke-miterlimit:10;}
	.st1{fill:#F15A24;stroke:#000000;stroke-miterlimit:10;}
	.st2{fill:#ED1C24;stroke:#000000;stroke-miterlimit:10;}
	.st3{fill:#00FF00;stroke:#000000;stroke-miterlimit:10;}
	.st4{fill:#FFFF00;stroke:#000000;stroke-miterlimit:10;}
	.st5{fill:none;}
</style>
<path class="st0" d="M250,0.6l0,249.9l237.4-77.1c-7.9-24.3-19.7-47.7-35.6-69.5C403,36.6,327,0.8,250,0.6z"/>
<path class="st1" d="M12.3,173.3c-23.6,73.3-13.1,156.6,35.8,223.9c15.8,21.8,34.5,40.3,55.1,55.3L250,250.5L12.3,173.3z"/>
<path class="st2" d="M250,0.6C199,0.5,147.5,16,103.1,48.2s-75.1,76.5-90.7,125L250,250.5L250,0.6z"/>
<path class="st3" d="M396.9,452.8c89.8-65.3,123.2-179.1,90.5-279.4L250,250.5L396.9,452.8z"/>
<path class="st4" d="M103.3,452.4c85.2,62.2,203.8,65.6,293.7,0.3L250,250.5L103.3,452.4z"/>
<g>
	<path d="M115.1,70.2l-0.1,0.1l-4,8.3l-3.8-3.2l5.1-10.4l4.4-3.2l27.5,37.9l-5,3.6L115.1,70.2z"/>
</g>
<g>
	<path d="M84.1,323.2l-3.7,1.2l-6.1-3.2c-14.5-7.9-21.9-11.1-28.7-9c-4.5,1.5-8,5-5.8,11.7c1.3,4,4.5,6.7,6.8,8.2l-3.6,3.3
		c-3.6-2.2-6.9-6-8.6-11.1c-3.1-9.6,2.1-15.8,8.5-17.8c8.2-2.7,16.8,1.1,28.9,7.6l4.4,2.5l0.1,0l-6.5-20l5-1.6L84.1,323.2z"/>
</g>
<g>
	<path d="M267.5,436c-1.8-1.2-6-3-10.4-3c-8.1,0-10.7,5.2-10.6,9.1c0.1,6.6,6,9.4,12.1,9.4h3.5v4.8h-3.5c-4.6,0-10.4,2.4-10.4,7.9
		c0,3.7,2.4,7.1,8.2,7.1c3.7,0,7.3-1.7,9.4-3.1l1.7,4.6c-2.4,1.8-7.2,3.6-12.2,3.6c-9.2,0-13.4-5.5-13.4-11.2c0-4.8,2.9-8.9,8.6-11
		V454c-5.8-1.2-10.4-5.5-10.4-12c0-7.5,5.8-14,17.1-14c5.3,0,9.9,1.7,12.2,3.2L267.5,436z"/>
</g>
<g>
	<path d="M425.6,319.9l12.1,3.9l6.7-20.7l4,1.3l22,29.1l-2.1,6.5l-27.7-9l-2,6.2l-4.7-1.5l2-6.2l-12.1-3.9L425.6,319.9z
		 M442.4,325.4l14.9,4.8c2.3,0.8,4.6,1.6,6.9,2.5l0.1-0.2c-2.2-2.2-3.7-3.9-5.4-5.8l-11.6-15.8l-0.1,0L442.4,325.4z"/>
</g>
<g>
	<path d="M386.7,71.9l-14.4-10.5l-8.5,8.7c1,0.5,1.9,1,3.3,2c2.9,2.1,5.4,4.9,6.7,8c1.7,3.8,1.8,8.9-1.7,13.7
		c-5.4,7.4-15.3,8.7-23.5,2.7c-4.1-3-6.8-6.7-7.7-9.2l4.1-3c0.9,2.1,3.1,5.5,6.6,8c4.8,3.5,11.3,3.4,14.9-1.7
		c3.5-4.9,2.8-10.8-4.8-16.3c-2.2-1.6-4-2.6-5.5-3.4l15.7-16.4l18.1,13.2L386.7,71.9z"/>
</g>
<path class="st5" d="M391.8,52.3"/>
<path class="st5" d="M250.2,258.9"/>
</svg>
