<?xml version="1.0" encoding="utf-8"?>
<!-- Generator: Adobe Illustrator 25.3.1, SVG Export Plug-In . SVG Version: 6.00 Build 0)  -->
<svg version="1.1" id="Слой_1" xmlns="http://www.w3.org/2000/svg" xmlns:xlink="http://www.w3.org/1999/xlink" x="0px" y="0px"
	 viewBox="0 0 499.5 500.5" style="enable-background:new 0 0 499.5 500.5;" xml:space="preserve">
<style type="text/css">
	.st0{fill:#F7931E;stroke:#000000;stroke-width:0.5;stroke-miterlimit:10;}
	.st1{fill:#FF0000;stroke:#000000;stroke-width:0.5;stroke-miterlimit:10;}
	.st2{fill:#7F47DD;stroke:#000000;stroke-width:0.5;stroke-miterlimit:10;}
	.st3{fill:#00FF00;stroke:#000000;stroke-width:0.5;stroke-miterlimit:10;}
	.st4{fill:#0000FF;stroke:#000000;stroke-width:0.5;stroke-miterlimit:10;}
	.st5{fill:#FFFF00;stroke:#000000;stroke-width:0.5;stroke-miterlimit:10;}
	.st6{fill:#00FFFF;stroke:#000000;stroke-width:0.5;stroke-miterlimit:10;}
</style>
<g>
	<g>
		<path d="M-1269,115.2c1.9,0,1.9-3,0-3C-1270.9,112.2-1270.9,115.2-1269,115.2L-1269,115.2z"/>
	</g>
</g>
<g>
	<g>
		<path d="M-1437.9-289.2c1.9,0,1.9-3,0-3C-1439.8-292.2-1439.8-289.2-1437.9-289.2L-1437.9-289.2z"/>
	</g>
</g>
<g>
	<path class="st0" d="M493.1,194.7c-16.9-75-67.4-137.1-134.9-169.7L249.8,250.2L493.1,194.7z"/>
	<path class="st1" d="M358.2,25C325.4,9.1,288.6,0.2,249.8,0.2S174.1,9.1,141.3,25l108.5,225.2L358.2,25z"/>
	<path class="st2" d="M141.3,25C73.9,57.6,23.4,119.8,6.4,194.7l243.3,55.5L141.3,25z"/>
	<path class="st3" d="M249.8,500.2c79.1,0,149.6-36.8,195.3-94.3L249.8,250.2V500.2z"/>
	<path class="st4" d="M6.4,194.7c-4,17.9-6.2,36.4-6.2,55.5c0,58.9,20.3,113,54.2,155.7l195.3-155.7L6.4,194.7z"/>
	<path class="st5" d="M493.1,194.7l-243.3,55.5L445,406c34-42.7,54.2-96.8,54.2-155.7C499.2,231.2,497.1,212.6,493.1,194.7z"/>
	<path class="st6" d="M54.5,406c45.7,57.5,116.1,94.3,195.3,94.3v-250L54.5,406z"/>
</g>
</svg>
